<?xml version="1.0" encoding="UTF-8" standalone="no"?>
<svg
   width="656"
   height="120"
   viewBox="0 0 164 30"
   version="1.1"
   xml:space="preserve"
   style="fill-rule:evenodd;clip-rule:evenodd;stroke-linejoin:round;stroke-miterlimit:2;"
   id="svg3"
   sodipodi:docname="NVIDIA_logo.svg"
   inkscape:version="1.4.2 (f4327f4, 2025-05-13)"
   xmlns:inkscape="http://www.inkscape.org/namespaces/inkscape"
   xmlns:sodipodi="http://sodipodi.sourceforge.net/DTD/sodipodi-0.dtd"
   xmlns="http://www.w3.org/2000/svg"
   xmlns:svg="http://www.w3.org/2000/svg"><defs
   id="defs3">
        
        
        
    </defs><sodipodi:namedview
   id="namedview3"
   pagecolor="#ffffff"
   bordercolor="#000000"
   borderopacity="0.25"
   inkscape:showpageshadow="2"
   inkscape:pageopacity="0.0"
   inkscape:pagecheckerboard="0"
   inkscape:deskcolor="#d1d1d1"
   inkscape:zoom="0.95718113"
   inkscape:cx="364.61229"
   inkscape:cy="4.7013045"
   inkscape:window-width="1920"
   inkscape:window-height="1017"
   inkscape:window-x="-8"
   inkscape:window-y="-8"
   inkscape:window-maximized="1"
   inkscape:current-layer="svg3" />
    <path
   d="M 160.352,24.069 V 23.62 h 0.288 c 0.157,0 0.371,0.012 0.371,0.204 0,0.208 -0.11,0.245 -0.296,0.245 h -0.363 m 0,0.315 h 0.192 l 0.447,0.784 h 0.49 l -0.494,-0.816 c 0.255,-0.019 0.465,-0.14 0.465,-0.484 0,-0.427 -0.295,-0.565 -0.793,-0.565 h -0.721 v 1.865 h 0.414 v -0.784 m 2.098,-0.146 c 0,-1.095 -0.851,-1.73 -1.8,-1.73 -0.955,0 -1.805,0.635 -1.805,1.73 0,1.095 0.85,1.733 1.805,1.733 0.948,0 1.8,-0.638 1.8,-1.733 m -0.52,0 c 0,0.798 -0.587,1.334 -1.28,1.334 v -0.006 c -0.713,0.006 -1.289,-0.53 -1.289,-1.328 0,-0.797 0.577,-1.331 1.289,-1.331 0.694,0 1.28,0.534 1.28,1.331"
   style="fill:#ffffff"
   id="path1" /><path
   d="m 96.374,5.707 0.002,19.66 h 5.552 V 5.707 Z M 52.697,5.681 V 25.367 H 58.3 V 10.086 l 4.37,0.014 c 1.437,0 2.43,0.345 3.123,1.084 0.879,0.936 1.237,2.444 1.237,5.205 v 8.978 h 5.427 V 14.49 c 0,-7.763 -4.948,-8.81 -9.789,-8.81 h -9.97 z m 52.617,0.027 v 19.659 h 9.006 c 4.798,0 6.364,-0.798 8.057,-2.587 1.198,-1.256 1.971,-4.014 1.971,-7.027 0,-2.763 -0.655,-5.228 -1.797,-6.763 -2.057,-2.745 -5.02,-3.282 -9.445,-3.282 z m 5.508,4.28 h 2.387 c 3.463,0 5.703,1.556 5.703,5.591 0,4.037 -2.24,5.592 -5.703,5.592 h -2.387 z m -22.453,-4.28 -4.634,15.58 -4.44,-15.579 -5.993,-10e-4 6.34,19.659 h 8.003 L 94.036,5.708 Z m 38.563,19.659 h 5.553 V 5.709 L 126.93,5.708 Z M 142.496,5.715 134.743,25.36 h 5.475 l 1.227,-3.472 h 9.175 l 1.161,3.472 h 5.944 L 149.913,5.714 Z m 3.604,3.585 3.364,9.204 h -6.833 l 3.47,-9.204 z"
   style="fill:#ffffff"
   id="path2" /><path
   d="M 16.889,8.985 V 6.28 c 0.262,-0.02 0.528,-0.033 0.798,-0.042 7.4,-0.232 12.255,6.359 12.255,6.359 0,0 -5.244,7.282 -10.866,7.282 -0.743,0.003 -1.482,-0.115 -2.187,-0.35 v -8.204 c 2.88,0.348 3.46,1.62 5.192,4.508 l 3.852,-3.248 c 0,0 -2.812,-3.688 -7.552,-3.688 -0.515,0 -1.008,0.036 -1.492,0.088 z m 0,-8.938 V 4.09 c 0.265,-0.021 0.531,-0.038 0.798,-0.048 10.29,-0.346 16.995,8.44 16.995,8.44 0,0 -7.7,9.364 -15.723,9.364 -0.735,0 -1.424,-0.068 -2.07,-0.183 v 2.498 c 0.553,0.07 1.126,0.112 1.724,0.112 7.465,0 12.864,-3.812 18.092,-8.325 0.867,0.694 4.416,2.383 5.145,3.123 -4.971,4.16 -16.555,7.515 -23.123,7.515 C 18.113,26.584 17.5,26.552 16.889,26.49 V 30 H 45.264 V 0.047 Z m 0,19.482 v 2.133 c -6.905,-1.23 -8.822,-8.408 -8.822,-8.408 0,0 3.316,-3.674 8.822,-4.269 v 2.34 l -0.011,-10e-4 c -2.89,-0.347 -5.147,2.353 -5.147,2.353 0,0 1.265,4.544 5.158,5.852 z M 4.625,12.943 c 0,0 4.092,-6.04 12.264,-6.663 V 4.088 C 7.838,4.815 0,12.48 0,12.48 c 0,0 4.439,12.833 16.889,14.008 V 24.16 C 7.753,23.011 4.625,12.943 4.625,12.943 Z"
   style="fill:#76b900"
   id="path3" />
</svg>
